<svg id="svg" version="1.1" xmlns="http://www.w3.org/2000/svg" xmlns:xlink="http://www.w3.org/1999/xlink" width="400" height="400" viewBox="0, 0, 400,400"><g id="svgg"><path id="path0" d="M37.333 198.868 L 37.333 361.333 200.038 361.333 L 362.742 361.333 255.304 254.086 C 196.214 195.101,122.997 121.991,92.600 91.621 L 37.333 36.402 37.333 198.868 " stroke="none" fill="#7cdb54" fill-rule="evenodd"></path><path id="path1" d="M0.019 11.400 L 0.038 22.800 0.522 20.533 C 2.702 10.345,11.082 2.271,21.424 0.395 C 23.129 0.085,22.083 0.046,11.667 0.024 L 0.000 0.000 0.019 11.400 M379.200 0.519 C 390.301 2.879,398.056 11.405,399.827 23.200 C 399.882 23.567,399.944 18.497,399.964 11.933 L 400.000 0.000 388.467 0.019 L 376.933 0.038 379.200 0.519 M280.400 36.568 C 240.252 40.412,210.039 75.590,212.292 115.871 C 214.943 163.284,259.747 196.316,306.000 184.957 C 339.369 176.762,363.032 146.381,363.032 111.733 C 363.032 67.271,324.625 32.335,280.400 36.568 M399.733 377.557 C 399.733 387.065,388.568 398.251,377.600 399.732 C 376.793 399.841,381.503 399.946,388.067 399.965 L 400.000 400.000 400.000 388.400 C 400.000 382.020,399.940 376.800,399.867 376.800 C 399.793 376.800,399.733 377.141,399.733 377.557 M0.019 388.467 L 0.000 400.000 11.533 399.964 C 17.877 399.944,22.767 399.880,22.400 399.822 C 11.285 398.074,2.911 390.178,0.529 379.200 L 0.038 376.933 0.019 388.467 " stroke="none" fill="#fbfbfc" fill-rule="evenodd"></path><path id="path2" d="M22.958 0.304 C 11.405 1.517,1.790 11.010,0.272 22.703 C 0.065 24.294,0.004 75.531,0.058 201.333 L 0.133 377.733 0.835 380.270 C 3.797 390.974,11.922 398.170,22.800 399.723 C 25.466 400.104,372.959 400.100,376.477 399.720 C 387.888 398.485,396.491 390.790,399.419 379.200 C 399.957 377.070,400.272 29.709,399.741 24.085 C 398.636 12.376,391.539 4.080,379.742 0.707 L 377.733 0.133 201.467 0.101 C 101.124 0.082,24.234 0.170,22.958 0.304 M295.600 36.555 C 352.978 42.260,382.870 109.641,348.705 156.267 C 315.389 201.735,245.533 196.153,220.249 146.002 C 193.263 92.473,235.850 30.616,295.600 36.555 M208.267 206.922 L 363.067 361.578 200.067 361.589 L 37.067 361.600 37.067 198.901 L 37.067 36.202 45.267 44.234 C 49.777 48.652,123.127 121.862,208.267 206.922 " stroke="none" fill="#8c54fb" fill-rule="evenodd"></path><path id="path3" d="M37.133 198.867 L 37.067 361.600 200.067 361.534 L 363.067 361.467 200.200 361.400 L 37.334 361.333 37.267 198.733 L 37.200 36.133 37.133 198.867 M96.400 95.467 C 124.560 123.627,147.659 146.667,147.733 146.667 C 147.806 146.667,124.826 123.627,96.667 95.467 C 68.507 67.307,45.407 44.267,45.334 44.267 C 45.261 44.267,68.240 67.307,96.400 95.467 M260.133 258.933 C 288.293 287.093,311.393 310.133,311.466 310.133 C 311.539 310.133,288.560 287.093,260.400 258.933 C 232.240 230.773,209.141 207.733,209.067 207.733 C 208.994 207.733,231.974 230.773,260.133 258.933 " stroke="none" fill="#84a498" fill-rule="evenodd"></path><path id="path4" d="M23.670 0.189 C 24.001 0.252,24.481 0.250,24.736 0.183 C 24.991 0.116,24.720 0.064,24.133 0.067 C 23.547 0.070,23.338 0.125,23.670 0.189 M375.400 0.188 C 375.730 0.252,376.270 0.252,376.600 0.188 C 376.930 0.125,376.660 0.073,376.000 0.073 C 375.340 0.073,375.070 0.125,375.400 0.188 M399.795 24.533 C 399.795 25.047,399.850 25.257,399.917 25.000 C 399.984 24.743,399.984 24.323,399.917 24.067 C 399.850 23.810,399.795 24.020,399.795 24.533 M287.004 36.191 C 287.409 36.253,288.009 36.251,288.337 36.188 C 288.665 36.124,288.333 36.074,287.600 36.076 C 286.867 36.078,286.598 36.130,287.004 36.191 M281.270 36.455 C 281.601 36.519,282.081 36.517,282.336 36.450 C 282.591 36.383,282.320 36.331,281.733 36.334 C 281.147 36.337,280.938 36.391,281.270 36.455 M293.003 36.455 C 293.335 36.519,293.815 36.517,294.070 36.450 C 294.325 36.383,294.053 36.331,293.467 36.334 C 292.880 36.337,292.671 36.391,293.003 36.455 M340.933 58.400 C 342.542 60.013,343.918 61.333,343.991 61.333 C 344.064 61.333,342.808 60.013,341.200 58.400 C 339.592 56.787,338.216 55.467,338.142 55.467 C 338.069 55.467,339.325 56.787,340.933 58.400 M234.128 58.333 L 231.600 60.933 234.200 58.405 C 235.630 57.015,236.800 55.845,236.800 55.805 C 236.800 55.612,236.476 55.918,234.128 58.333 M212.329 104.533 C 212.329 105.047,212.383 105.257,212.450 105.000 C 212.518 104.743,212.518 104.323,212.450 104.067 C 212.383 103.810,212.329 104.020,212.329 104.533 M363.010 107.867 C 363.012 108.600,363.063 108.868,363.125 108.463 C 363.186 108.058,363.184 107.458,363.121 107.130 C 363.058 106.802,363.008 107.133,363.010 107.867 M212.088 108.933 C 212.089 109.960,212.137 110.347,212.195 109.794 C 212.252 109.241,212.251 108.401,212.192 107.927 C 212.134 107.454,212.086 107.907,212.088 108.933 M212.088 114.533 C 212.089 115.560,212.137 115.947,212.195 115.394 C 212.252 114.841,212.251 114.001,212.192 113.527 C 212.134 113.054,212.086 113.507,212.088 114.533 M363.010 115.600 C 363.012 116.333,363.063 116.602,363.125 116.196 C 363.186 115.791,363.184 115.191,363.121 114.863 C 363.058 114.535,363.008 114.867,363.010 115.600 M212.329 118.933 C 212.329 119.447,212.383 119.657,212.450 119.400 C 212.518 119.143,212.518 118.723,212.450 118.467 C 212.383 118.210,212.329 118.420,212.329 118.933 M342.787 163.267 L 341.733 164.400 342.867 163.346 C 343.921 162.366,344.123 162.133,343.921 162.133 C 343.877 162.133,343.367 162.643,342.787 163.267 M232.522 163.533 C 233.176 164.230,233.746 164.800,233.789 164.800 C 233.989 164.800,233.777 164.561,232.600 163.456 L 231.333 162.267 232.522 163.533 M235.722 166.733 C 236.376 167.430,236.946 168.000,236.989 168.000 C 237.189 168.000,236.977 167.761,235.800 166.656 L 234.533 165.467 235.722 166.733 M338.652 167.400 L 337.733 168.400 338.733 167.481 C 339.283 166.976,339.733 166.526,339.733 166.481 C 339.733 166.277,339.508 166.469,338.652 167.400 M281.270 187.122 C 281.601 187.186,282.081 187.183,282.336 187.117 C 282.591 187.050,282.320 186.998,281.733 187.001 C 281.147 187.004,280.938 187.058,281.270 187.122 M293.003 187.122 C 293.335 187.186,293.815 187.183,294.070 187.117 C 294.325 187.050,294.053 186.998,293.467 187.001 C 292.880 187.004,292.671 187.058,293.003 187.122 M286.467 187.396 C 287.163 187.451,288.303 187.451,289.000 187.396 C 289.697 187.341,289.127 187.296,287.733 187.296 C 286.340 187.296,285.770 187.341,286.467 187.396 M0.062 376.267 C 0.062 376.780,0.117 376.990,0.184 376.733 C 0.251 376.477,0.251 376.057,0.184 375.800 C 0.117 375.543,0.062 375.753,0.062 376.267 " stroke="none" fill="#b48ffc" fill-rule="evenodd"></path></g></svg>